<?xml version="1.0" encoding="UTF-8"?>
<svg version="1.1" xmlns="http://www.w3.org/2000/svg" width="528" height="528">
<path d="M0 0 C174.24 0 348.48 0 528 0 C528 174.24 528 348.48 528 528 C353.76 528 179.52 528 0 528 C0 353.76 0 179.52 0 0 Z " fill="#FDFDFD" transform="translate(0,0)"/>
<path d="M0 0 C128.7 0 257.4 0 390 0 C390 11.55 390 23.1 390 35 C383.07 35.66 376.14 36.32 369 37 C369 101.68 369 166.36 369 233 C376.59 233 384.18 233 392 233 C392 245.21 392 257.42 392 270 C262.64 270 133.28 270 0 270 C0 257.46 0 244.92 0 232 C17 230 17 230 23 230 C23 165.98 23 101.96 23 36 C15.41 36 7.82 36 0 36 C0 24.12 0 12.24 0 0 Z " fill="#090909" transform="translate(64,199)"/>
<path d="M0 0 C0.70133057 0.23001709 1.40266113 0.46003418 2.12524414 0.69702148 C8.19464715 2.70414219 14.13217798 4.81723755 19.9375 7.5 C25.09573772 9.84139138 30.43100726 11.62592769 35.77905273 13.47583008 C40.1351484 14.99426246 44.32173405 16.66643784 48.5 18.625 C52.10493582 20.15709772 55.79932062 21.40747049 59.5 22.6875 C64.62387019 24.45979757 69.58787179 26.3224399 74.5 28.625 C78.10493582 30.15709772 81.79932062 31.40747049 85.5 32.6875 C90.61987742 34.4584165 95.58134189 36.31704953 100.48828125 38.62109375 C104.86592986 40.47972216 109.3832231 41.97031128 113.88671875 43.49414062 C117.14158119 44.61000799 120.15685688 45.76611742 123.2421875 47.3125 C125.75823395 48.56695942 127.69195075 49.17664425 130.4375 49.625 C134.08488773 50.36294578 136.75721435 51.57261122 139.94140625 53.55078125 C146.62018815 57.23868549 154.20778621 59.45654849 161.4375 61.8125 C165.51220778 63.1405134 169.18080945 64.73546928 173 66.6875 C175.2131596 67.45913802 177.44287387 68.16659034 179.67578125 68.87890625 C181.87705059 69.644726 183.90206411 70.55208213 186 71.5625 C193.00738141 74.79667604 200.60053863 76.59001489 208 78.6875 C208 87.5975 208 96.5075 208 105.6875 C63.13 105.6875 -81.74 105.6875 -231 105.6875 C-232.81260936 101.15597661 -233.29600657 98.89362641 -233.3125 94.1875 C-233.32925781 93.0840625 -233.34601563 91.980625 -233.36328125 90.84375 C-232.62688096 84.44577762 -228.46423534 80.66339429 -223.79296875 76.609375 C-219.60737775 73.72922007 -215.16359135 72.30999873 -210.3515625 70.76953125 C-207.56605641 69.87024781 -205.01629182 68.86880833 -202.375 67.625 C-199.03881982 66.08332709 -195.68470528 64.88104957 -192.1875 63.75 C-186.91626752 62.04440376 -181.85068265 60.0178586 -176.75390625 57.8515625 C-172.03188629 55.8555881 -167.32385938 54.05270259 -162.375 52.6875 C-158.98875094 51.79105749 -158.98875094 51.79105749 -156 50.1875 C-153 48.6875 -153 48.6875 -149.625 47.75 C-146.82579302 46.92954278 -144.77914316 46.13900978 -142.25 44.8125 C-136.19098957 41.65946156 -129.75705831 39.45586051 -123.1875 37.625 C-119.9589887 36.77740939 -119.9589887 36.77740939 -117 35.1875 C-113.72847253 33.55173626 -110.51137783 32.69075081 -107 31.6875 C-106.01 31.1925 -105.02 30.6975 -104 30.1875 C-100.72847253 28.55173626 -97.51137783 27.69075081 -94 26.6875 C-93.01 26.1925 -92.02 25.6975 -91 25.1875 C-87.72847253 23.55173626 -84.51137783 22.69075081 -81 21.6875 C-80.01 21.1925 -79.02 20.6975 -78 20.1875 C-75 18.6875 -75 18.6875 -71.625 17.75 C-68.82317531 16.92877552 -66.82991578 16.15199453 -64.3125 14.8125 C-60.01342795 12.56298555 -55.54723974 11.16447264 -50.9375 9.68359375 C-47.65036835 8.5689414 -44.55774246 7.20615279 -41.40625 5.76171875 C-27.72507395 -0.34594913 -14.66762298 -5.00537746 0 0 Z " fill="#0A0A0A" transform="translate(271,68.3125)"/>
<path d="M0 0 C13.86 0 27.72 0 42 0 C42 64.35 42 128.7 42 195 C28.14 195 14.28 195 0 195 C0 130.65 0 66.3 0 0 Z " fill="#F9F9F9" transform="translate(277,237)"/>
<path d="M0 0 C13.2 0 26.4 0 40 0 C40 64.02 40 128.04 40 194 C27.46 194 14.92 194 2 194 C0.09192003 192.09192003 0.74619342 188.59546846 0.68579102 185.99316406 C0.66513266 185.23042931 0.6444743 184.46769455 0.62318993 183.68184662 C0.55550506 181.0432261 0.49756998 178.40451513 0.44140625 175.765625 C0.42034883 174.8269886 0.39929142 173.8883522 0.3775959 172.92127228 C-0.29843886 141.77729669 -0.11367092 110.61824974 -0.07202756 79.46889257 C-0.0606156 70.77888919 -0.05529322 62.08888478 -0.05032361 53.39887571 C-0.04001603 35.59924018 -0.02176239 17.79962546 0 0 Z " fill="#FCFCFC" transform="translate(199,238)"/>
<path d="M0 0 C11.88 0 23.76 0 36 0 C37.71432974 1.71432974 37.12489286 3.8894337 37.13374341 6.17583036 C37.13151268 6.92318842 37.12928196 7.67054648 37.12698364 8.44055176 C37.12854363 9.22882622 37.13010362 10.01710069 37.13171089 10.82926226 C37.13572407 13.49101113 37.13253002 16.15270375 37.12939453 18.81445312 C37.13074843 20.7144321 37.1325283 22.61441082 37.13470459 24.51438904 C37.13928026 29.68985825 37.13748881 34.86530763 37.1343255 40.04077721 C37.13180259 45.44421825 37.13413925 50.84765753 37.13571167 56.25109863 C37.13753357 65.32707018 37.13512653 74.4030336 37.13037109 83.47900391 C37.12492844 93.98826832 37.12669108 104.49751334 37.1321975 115.00677729 C37.13672806 124.01226038 37.13737946 133.01773762 37.13475883 142.02322149 C37.13319574 147.4094916 37.13300316 152.79575257 37.13629532 158.18202209 C37.1391732 163.24459305 37.13719988 168.30713888 37.13140106 173.36970711 C37.13007302 175.23340373 37.13046833 177.09710246 37.13266373 178.96079826 C37.1353735 181.49371064 37.13199625 184.02654116 37.12698364 186.55944824 C37.12921436 187.3068063 37.13144509 188.05416436 37.13374341 188.82416964 C37.11414985 193.88585015 37.11414985 193.88585015 36 195 C24.12 195 12.24 195 0 195 C0 130.65 0 66.3 0 0 Z " fill="#F2F2F2" transform="translate(358,237)"/>
<path d="M0 0 C11.55 0 23.1 0 35 0 C36.71543934 1.71543934 36.12232668 3.89297751 36.12908131 6.18049246 C36.12471205 7.30255273 36.12471205 7.30255273 36.12025452 8.44728088 C36.12110894 9.23626091 36.12196337 10.02524094 36.12284368 10.83812946 C36.12450089 13.50221627 36.11897321 16.16624118 36.11352539 18.83032227 C36.11324354 20.73192341 36.1134012 22.63352466 36.1139679 24.53512573 C36.11425597 29.71466284 36.10835763 34.89417701 36.10139394 40.07370877 C36.09516206 45.48028527 36.09455673 50.88686224 36.09336853 56.29344177 C36.09025472 66.53925291 36.08204067 76.78505343 36.07201904 87.03085989 C36.06085943 98.69208663 36.05534784 110.35331386 36.05032361 122.01454461 C36.0398581 146.00970365 36.021512 170.00484814 36 194 C24.12 194 12.24 194 0 194 C0 129.98 0 65.96 0 0 Z " fill="#EDEDED" transform="translate(125,237)"/>
<path d="M0 0 C11.88 0 23.76 0 36 0 C37.71432974 1.71432974 37.12489286 3.8894337 37.13374341 6.17583036 C37.13151268 6.92318842 37.12928196 7.67054648 37.12698364 8.44055176 C37.12854363 9.22882622 37.13010362 10.01710069 37.13171089 10.82926226 C37.13572407 13.49101113 37.13253002 16.15270375 37.12939453 18.81445312 C37.13074843 20.7144321 37.1325283 22.61441082 37.13470459 24.51438904 C37.13928026 29.68985825 37.13748881 34.86530763 37.1343255 40.04077721 C37.13180259 45.44421825 37.13413925 50.84765753 37.13571167 56.25109863 C37.13753357 65.32707018 37.13512653 74.4030336 37.13037109 83.47900391 C37.12492844 93.98826832 37.12669108 104.49751334 37.1321975 115.00677729 C37.13672806 124.01226038 37.13737946 133.01773762 37.13475883 142.02322149 C37.13319574 147.4094916 37.13300316 152.79575257 37.13629532 158.18202209 C37.1391732 163.24459305 37.13719988 168.30713888 37.13140106 173.36970711 C37.13007302 175.23340373 37.13046833 177.09710246 37.13266373 178.96079826 C37.1353735 181.49371064 37.13199625 184.02654116 37.12698364 186.55944824 C37.12921436 187.3068063 37.13144509 188.05416436 37.13374341 188.82416964 C37.11414985 193.88585015 37.11414985 193.88585015 36 195 C24.12 195 12.24 195 0 195 C0 130.65 0 66.3 0 0 Z M2 1 C2 64.36 2 127.72 2 193 C13.22 193 24.44 193 36 193 C36 129.64 36 66.28 36 1 C24.78 1 13.56 1 2 1 Z " fill="#B1B1B1" transform="translate(358,237)"/>
<path d="M0 0 C0.33 0 0.66 0 1 0 C1 11.22 1 22.44 1 34 C-10.22 34 -21.44 34 -33 34 C-30.75508598 32.87754299 -28.50349458 31.76750381 -26.23046875 30.703125 C-13.85271536 24.7923108 -6.42298184 18.03514866 -1.625 4.9375 C-1.07100266 3.29577618 -0.52471701 1.65131529 0 0 Z " fill="#000000" transform="translate(527,494)"/>
<path d="M0 0 C1.12245701 2.24491402 2.23249619 4.49650542 3.296875 6.76953125 C9.2076892 19.14728464 15.96485134 26.57701816 29.0625 31.375 C30.70422382 31.92899734 32.34868471 32.47528299 34 33 C34 33.33 34 33.66 34 34 C22.78 34 11.56 34 0 34 C0 22.78 0 11.56 0 0 Z " fill="#000000" transform="translate(0,494)"/>
<path d="M0 0 C11.22 0 22.44 0 34 0 C34 11.22 34 22.44 34 34 C32.87754299 31.75508598 31.76750381 29.50349458 30.703125 27.23046875 C24.7923108 14.85271536 18.03514866 7.42298184 4.9375 2.625 C3.29577618 2.07100266 1.65131529 1.52471701 0 1 C0 0.67 0 0.34 0 0 Z " fill="#000000" transform="translate(494,0)"/>
<path d="M0 0 C11.22 0 22.44 0 34 0 C31.75508598 1.12245701 29.50349458 2.23249619 27.23046875 3.296875 C14.85271536 9.2076892 7.42298184 15.96485134 2.625 29.0625 C2.07100266 30.70422382 1.52471701 32.34868471 1 34 C0.67 34 0.34 34 0 34 C0 22.78 0 11.56 0 0 Z " fill="#000000" transform="translate(0,0)"/>
</svg>
